<?xml version="1.0" encoding="UTF-8"?>
<!DOCTYPE svg PUBLIC "-//W3C//DTD SVG 1.0//EN" "http://www.w3.org/TR/2001/REC-SVG-20010904/DTD/svg10.dtd">
<!-- Creator: CorelDRAW 2019 (64-Bit Versión de evaluación) -->
<svg xmlns="http://www.w3.org/2000/svg" xml:space="preserve" width="88px" height="75px" version="1.0" style="shape-rendering:geometricPrecision; text-rendering:geometricPrecision; image-rendering:optimizeQuality; fill-rule:evenodd; clip-rule:evenodd"
viewBox="0 0 64.15 54.79"
 xmlns:xlink="http://www.w3.org/1999/xlink"
 xmlns:xodm="http://www.corel.com/coreldraw/odm/2003">
 <defs>
  <style type="text/css">
   <![CDATA[
    .fil0 {fill:#E3B2EA}
   ]]>
  </style>
 </defs>
 <g id="Capa_x0020_1">
  <metadata id="CorelCorpID_0Corel-Layer"/>
  <path class="fil0" d="M27.2 0l24.12 0c7.05,0 12.83,5.77 12.83,12.82l0 29.14c0,7.06 -5.78,12.83 -12.83,12.83l-24.12 0c-7.05,0 -27.2,-24.11 -27.2,-27.4l0 -5.07c0,-3.29 20.15,-22.32 27.2,-22.32zm23.22 36.04c1.06,1.07 1.06,2.81 0,3.87 -1.07,1.07 -2.81,1.07 -3.88,0l-8.65 -8.64 -8.64 8.64c-1.07,1.07 -2.81,1.07 -3.88,0 -1.07,-1.06 -1.07,-2.8 0,-3.87l8.65 -8.65 -8.65 -8.64c-1.07,-1.07 -1.07,-2.81 0,-3.88 1.07,-1.07 2.81,-1.07 3.88,0l8.64 8.65 8.65 -8.65c1.07,-1.07 2.81,-1.07 3.88,0 1.06,1.07 1.06,2.81 0,3.88l-8.65 8.64 8.65 8.65z"/>
 </g>
</svg>
