<?xml version="1.0" encoding="UTF-8"?>
<!DOCTYPE svg PUBLIC "-//W3C//DTD SVG 1.0//EN" "http://www.w3.org/TR/2001/REC-SVG-20010904/DTD/svg10.dtd">
<!-- Creator: CorelDRAW 2019 (64-Bit Versión de evaluación) -->
<svg xmlns="http://www.w3.org/2000/svg" xml:space="preserve" width="84px" height="84px" version="1.0" style="shape-rendering:geometricPrecision; text-rendering:geometricPrecision; image-rendering:optimizeQuality; fill-rule:evenodd; clip-rule:evenodd"
viewBox="0 0 18.02 18.02"
 xmlns:xlink="http://www.w3.org/1999/xlink"
 xmlns:xodm="http://www.corel.com/coreldraw/odm/2003">
 <defs>
  <style type="text/css">
   <![CDATA[
    .fil1 {fill:none}
    .fil0 {fill:#FEFEFE;fill-rule:nonzero}
   ]]>
  </style>
 </defs>
 <g id="Capa_x0020_1">
  <metadata id="CorelCorpID_0Corel-Layer"/>
  <path class="fil0" d="M11.27 9.7c0.41,0 0.78,0.17 1.05,0.45 0.26,0.28 0.43,0.66 0.43,1.08 0,0.42 -0.17,0.8 -0.43,1.07 -0.27,0.28 -0.64,0.46 -1.05,0.46 -0.41,0 -0.78,-0.18 -1.04,-0.46 -0.26,-0.27 -0.43,-0.65 -0.43,-1.07 0,-0.08 0.01,-0.17 0.02,-0.24l-1.94 -0.97c-0.03,0.03 -0.06,0.07 -0.09,0.1 -0.27,0.29 -0.64,0.46 -1.05,0.46 -0.41,0 -0.78,-0.17 -1.04,-0.46 -0.27,-0.27 -0.43,-0.65 -0.43,-1.07 0,-0.42 0.16,-0.8 0.43,-1.08 0.26,-0.28 0.63,-0.45 1.04,-0.45 0.41,0 0.78,0.17 1.05,0.45 0.03,0.04 0.06,0.07 0.09,0.11l1.95 -0.97c-0.02,-0.11 -0.03,-0.21 -0.03,-0.32 0,-0.42 0.17,-0.8 0.43,-1.08 0.26,-0.28 0.63,-0.45 1.04,-0.45 0.41,0 0.78,0.17 1.05,0.45 0.26,0.28 0.43,0.66 0.43,1.08 0,0.42 -0.17,0.8 -0.43,1.07 -0.27,0.28 -0.64,0.46 -1.05,0.46 -0.41,0 -0.78,-0.18 -1.04,-0.46 -0.03,-0.03 -0.07,-0.07 -0.1,-0.1l-1.95 0.97c0.02,0.1 0.03,0.21 0.03,0.32 0,0.11 -0.01,0.22 -0.03,0.32l1.91 0.95c0.04,-0.06 0.09,-0.11 0.14,-0.17 0.26,-0.28 0.63,-0.45 1.04,-0.45zm-4 -1.23c-0.13,-0.15 -0.32,-0.24 -0.53,-0.24 -0.2,0 -0.39,0.09 -0.53,0.24 -0.14,0.14 -0.23,0.35 -0.23,0.58 0,0.23 0.09,0.44 0.23,0.58 0.14,0.15 0.33,0.24 0.53,0.24 0.21,0 0.4,-0.09 0.53,-0.24 0.14,-0.14 0.23,-0.35 0.23,-0.58 0,-0.23 -0.09,-0.44 -0.23,-0.58zm4.53 -2.27c-0.13,-0.14 -0.32,-0.23 -0.53,-0.23 -0.2,0 -0.39,0.09 -0.53,0.23 -0.14,0.15 -0.22,0.36 -0.22,0.59 0,0.23 0.08,0.43 0.22,0.58 0.14,0.14 0.33,0.23 0.53,0.23 0.21,0 0.4,-0.09 0.53,-0.23 0.14,-0.15 0.23,-0.35 0.23,-0.58 0,-0.23 -0.09,-0.44 -0.23,-0.59zm0 4.44c-0.13,-0.14 -0.32,-0.23 -0.53,-0.23 -0.2,0 -0.39,0.09 -0.53,0.23 -0.14,0.15 -0.22,0.36 -0.22,0.59 0,0.23 0.08,0.43 0.22,0.58 0.14,0.14 0.33,0.23 0.53,0.23 0.21,0 0.4,-0.09 0.53,-0.23 0.14,-0.15 0.23,-0.35 0.23,-0.58 0,-0.23 -0.09,-0.44 -0.23,-0.59z"/>
  <rect class="fil1" width="18.02" height="18.02"/>
 </g>
</svg>
