<?xml version="1.0" encoding="UTF-8"?>
<!DOCTYPE svg PUBLIC "-//W3C//DTD SVG 1.0//EN" "http://www.w3.org/TR/2001/REC-SVG-20010904/DTD/svg10.dtd">
<!-- Creator: CorelDRAW 2019 (64-Bit Versión de evaluación) -->
<svg xmlns="http://www.w3.org/2000/svg" xml:space="preserve" width="75px" height="98px" version="1.0" style="shape-rendering:geometricPrecision; text-rendering:geometricPrecision; image-rendering:optimizeQuality; fill-rule:evenodd; clip-rule:evenodd"
viewBox="0 0 3.46 4.49"
 xmlns:xlink="http://www.w3.org/1999/xlink"
 xmlns:xodm="http://www.corel.com/coreldraw/odm/2003">
 <defs>
  <style type="text/css">
   <![CDATA[
    .fil1 {fill:none}
    .fil0 {fill:#686870;fill-rule:nonzero}
   ]]>
  </style>
 </defs>
 <g id="Capa_x0020_1">
  <metadata id="CorelCorpID_0Corel-Layer"/>
  <path class="fil0" d="M0.46 3.9c-0.11,0.1 -0.28,0.1 -0.38,0 -0.11,-0.11 -0.11,-0.28 0,-0.38l1.27 -1.27 -1.27 -1.27c-0.11,-0.11 -0.11,-0.28 0,-0.38 0.1,-0.11 0.27,-0.11 0.38,0l1.27 1.27 1.27 -1.27c0.1,-0.11 0.28,-0.11 0.38,0 0.1,0.1 0.1,0.27 0,0.38l-1.27 1.27 1.27 1.27c0.1,0.1 0.1,0.27 0,0.38 -0.1,0.1 -0.28,0.1 -0.38,0l-1.27 -1.27 -1.27 1.27z"/>
  <rect class="fil1" width="3.46" height="4.49"/>
 </g>
</svg>
