<?xml version="1.0" encoding="UTF-8"?>
<!DOCTYPE svg PUBLIC "-//W3C//DTD SVG 1.0//EN" "http://www.w3.org/TR/2001/REC-SVG-20010904/DTD/svg10.dtd">
<!-- Creator: CorelDRAW 2019 (64-Bit Versión de evaluación) -->
<svg xmlns="http://www.w3.org/2000/svg" xml:space="preserve" width="34px" height="34px" version="1.0" style="shape-rendering:geometricPrecision; text-rendering:geometricPrecision; image-rendering:optimizeQuality; fill-rule:evenodd; clip-rule:evenodd"
viewBox="0 0 5.87 5.88"
 xmlns:xlink="http://www.w3.org/1999/xlink"
 xmlns:xodm="http://www.corel.com/coreldraw/odm/2003">
 <defs>
  <style type="text/css">
   <![CDATA[
    .fil0 {fill:#F1FFFF;fill-rule:nonzero}
   ]]>
  </style>
 </defs>
 <g id="Capa_x0020_1">
  <metadata id="CorelCorpID_0Corel-Layer"/>
  <g id="_1891353193696">
   <path class="fil0" d="M0.2 1.57l5.32 -1.56c0.09,-0.03 0.2,-0.01 0.28,0.07 0.1,0.11 0.1,0.28 -0.01,0.38l-2.8 2.75c-0.08,0.09 -0.21,0.12 -0.32,0.07l-2.52 -1.21c-0.06,-0.03 -0.12,-0.09 -0.14,-0.17 -0.04,-0.14 0.04,-0.29 0.19,-0.33zm4.44 -0.74l-3.61 1.06 1.7 0.81 1.91 -1.87z"/>
   <path class="fil0" d="M4.31 5.68l1.55 -5.32c0.04,-0.09 -0.11,-0.08 -0.19,-0.15 -0.11,-0.11 -0.14,0.11 -0.25,0.22l-2.4 2.47c-0.09,0.07 -0.16,-0.05 -0.42,0.31l1.2 2.51c0.04,0.07 0.1,0.12 0.17,0.15 0.15,0.04 0.3,-0.04 0.34,-0.19zm0.73 -4.44l-1.05 3.61 -0.82 -1.71 1.87 -1.9z"/>
  </g>
 </g>
</svg>
