<?xml version="1.0" encoding="UTF-8"?>
<!DOCTYPE svg PUBLIC "-//W3C//DTD SVG 1.0//EN" "http://www.w3.org/TR/2001/REC-SVG-20010904/DTD/svg10.dtd">
<!-- Creator: CorelDRAW 2019 (64-Bit Versión de evaluación) -->
<svg xmlns="http://www.w3.org/2000/svg" xml:space="preserve" width="84px" height="84px" version="1.0" style="shape-rendering:geometricPrecision; text-rendering:geometricPrecision; image-rendering:optimizeQuality; fill-rule:evenodd; clip-rule:evenodd"
viewBox="0 0 80.84 80.84"
 xmlns:xlink="http://www.w3.org/1999/xlink"
 xmlns:xodm="http://www.corel.com/coreldraw/odm/2003">
 <defs>
  <style type="text/css">
   <![CDATA[
    .fil1 {fill:none}
    .fil0 {fill:#FEFEFE;fill-rule:nonzero}
   ]]>
  </style>
 </defs>
 <g id="Capa_x0020_1">
  <metadata id="CorelCorpID_0Corel-Layer"/>
  <path class="fil0" d="M38.88 42.12l3.07 0c0.98,0 1.86,0.4 2.5,1.04 0.63,0.64 1.03,1.53 1.03,2.49l0 6.25 3.05 0c0.09,0 0.17,-0.04 0.23,-0.1 0.06,-0.06 0.09,-0.14 0.09,-0.22l0 -14.44c-3.27,-3.62 -7.59,-8.2 -8.43,-8.2 -0.85,0 -5.16,4.58 -8.43,8.19l0 14.45c0,0.08 0.03,0.16 0.09,0.22 0.06,0.06 0.14,0.1 0.23,0.1l3.05 0 0 -6.25c0,-0.96 0.39,-1.85 1.03,-2.49 0.64,-0.64 1.52,-1.04 2.49,-1.04zm3.39 9.78l0 -6.25c0,-0.09 -0.03,-0.17 -0.09,-0.22 -0.06,-0.06 -0.14,-0.1 -0.23,-0.1l-3.07 0c-0.08,0 -0.16,0.04 -0.22,0.1 -0.06,0.05 -0.1,0.13 -0.1,0.22l0 6.25 3.71 0zm9.79 -11.17l0 10.85c0,0.97 -0.4,1.85 -1.03,2.49 -0.64,0.64 -1.52,1.03 -2.5,1.03l-16.22 0c-0.98,0 -1.86,-0.39 -2.5,-1.03 -0.63,-0.64 -1.03,-1.52 -1.03,-2.49l0 -10.85 -0.62 0.7c-0.58,0.67 -1.59,0.73 -2.25,0.15 -0.67,-0.58 -0.73,-1.59 -0.15,-2.25 0.03,-0.04 11.7,-13.6 14.66,-13.6 2.96,0 14.63,13.56 14.66,13.6 0.58,0.66 0.51,1.67 -0.15,2.25 -0.66,0.58 -1.67,0.52 -2.26,-0.15l-0.61 -0.7z"/>
  <rect class="fil1" width="80.84" height="80.84"/>
 </g>
</svg>
