<?xml version="1.0" encoding="UTF-8"?>
<!DOCTYPE svg PUBLIC "-//W3C//DTD SVG 1.0//EN" "http://www.w3.org/TR/2001/REC-SVG-20010904/DTD/svg10.dtd">
<!-- Creator: CorelDRAW 2019 (64-Bit Versión de evaluación) -->
<svg xmlns="http://www.w3.org/2000/svg" xml:space="preserve" width="37px" height="24px" version="1.0" style="shape-rendering:geometricPrecision; text-rendering:geometricPrecision; image-rendering:optimizeQuality; fill-rule:evenodd; clip-rule:evenodd"
viewBox="0 0 2.36 1.57"
 xmlns:xlink="http://www.w3.org/1999/xlink"
 xmlns:xodm="http://www.corel.com/coreldraw/odm/2003">
 <defs>
  <style type="text/css">
   <![CDATA[
    .fil0 {fill:#FFFAFF}
   ]]>
  </style>
 </defs>
 <g id="Capa_x0020_1">
  <metadata id="CorelCorpID_0Corel-Layer"/>
  <path class="fil0" d="M0 0.79c0,-0.13 0.42,-0.79 1.18,-0.79 0.75,0 1.18,0.66 1.18,0.79 0,0.12 -0.43,0.78 -1.18,0.78 -0.76,0 -1.18,-0.66 -1.18,-0.78zm1.18 -0.46c0.12,0 0.24,0.06 0.32,0.14 0.08,0.08 0.13,0.19 0.13,0.32 0,0.12 -0.05,0.23 -0.13,0.31 -0.08,0.09 -0.2,0.14 -0.32,0.14 -0.13,0 -0.24,-0.05 -0.32,-0.13 -0.08,-0.09 -0.13,-0.2 -0.13,-0.32 0,-0.13 0.05,-0.24 0.13,-0.32 0.08,-0.08 0.19,-0.14 0.32,-0.14zm0.2 0.26c-0.06,-0.05 -0.12,-0.08 -0.2,-0.08 -0.08,0 -0.15,0.03 -0.2,0.08 -0.05,0.05 -0.08,0.12 -0.08,0.2 0,0.07 0.03,0.14 0.08,0.19 0.05,0.05 0.12,0.08 0.2,0.08 0.08,0 0.15,-0.03 0.2,-0.08 0.05,-0.05 0.08,-0.12 0.08,-0.19 0,-0.08 -0.03,-0.15 -0.08,-0.2z"/>
 </g>
</svg>
