<?xml version="1.0" encoding="UTF-8"?>
<!DOCTYPE svg PUBLIC "-//W3C//DTD SVG 1.0//EN" "http://www.w3.org/TR/2001/REC-SVG-20010904/DTD/svg10.dtd">
<!-- Creator: CorelDRAW 2019 (64-Bit Versión de evaluación) -->
<svg xmlns="http://www.w3.org/2000/svg" xml:space="preserve" width="32px" height="32px" version="1.0" style="shape-rendering:geometricPrecision; text-rendering:geometricPrecision; image-rendering:optimizeQuality; fill-rule:evenodd; clip-rule:evenodd"
viewBox="0 0 1.9 1.9"
 xmlns:xlink="http://www.w3.org/1999/xlink"
 xmlns:xodm="http://www.corel.com/coreldraw/odm/2003">
 <defs>
  <style type="text/css">
   <![CDATA[
    .fil1 {fill:#0CCBB3}
    .fil0 {fill:#0CCBB3;fill-rule:nonzero}
   ]]>
  </style>
 </defs>
 <g id="Capa_x0020_1">
  <metadata id="CorelCorpID_0Corel-Layer"/>
  <g id="_1889964718736">
   <path class="fil0" d="M0.25 0l0.35 0c0.06,0 0.12,0.03 0.17,0.07 0.04,0.05 0.07,0.11 0.07,0.18l0 0.35c0,0.06 -0.03,0.12 -0.07,0.17 -0.05,0.04 -0.11,0.07 -0.17,0.07l-0.35 0c-0.07,0 -0.13,-0.03 -0.18,-0.07 -0.04,-0.05 -0.07,-0.11 -0.07,-0.17l0 -0.35c0,-0.07 0.03,-0.13 0.07,-0.18 0.05,-0.04 0.11,-0.07 0.18,-0.07zm0.35 0.19l-0.35 0c-0.02,0 -0.04,0 -0.05,0.01 -0.01,0.01 -0.01,0.03 -0.01,0.05l0 0.35c0,0.01 0,0.03 0.01,0.04 0.01,0.01 0.03,0.01 0.05,0.01l0.35 0c0.01,0 0.03,0 0.04,-0.01 0.01,-0.01 0.01,-0.03 0.01,-0.04l0 -0.35c0,-0.02 0,-0.04 -0.01,-0.05 -0.01,-0.01 -0.03,-0.01 -0.04,-0.01z"/>
   <path class="fil0" d="M1.3 0l0.35 0c0.07,0 0.13,0.03 0.17,0.07 0.05,0.05 0.08,0.11 0.08,0.18l0 0.35c0,0.06 -0.03,0.12 -0.08,0.17 -0.04,0.04 -0.1,0.07 -0.17,0.07l-0.35 0c-0.07,0 -0.13,-0.03 -0.17,-0.07 -0.05,-0.05 -0.08,-0.11 -0.08,-0.17l0 -0.35c0,-0.07 0.03,-0.13 0.08,-0.18 0.04,-0.04 0.1,-0.07 0.17,-0.07zm0.35 0.19l-0.35 0c-0.02,0 -0.03,0 -0.04,0.01 -0.01,0.01 -0.02,0.03 -0.02,0.05l0 0.35c0,0.01 0.01,0.03 0.02,0.04 0.01,0.01 0.02,0.01 0.04,0.01l0.35 0c0.02,0 0.03,0 0.04,-0.01 0.01,-0.01 0.02,-0.03 0.02,-0.04l0 -0.35c0,-0.02 -0.01,-0.04 -0.02,-0.05 -0.01,-0.01 -0.02,-0.01 -0.04,-0.01z"/>
   <path class="fil0" d="M0.25 1.05l0.35 0c0.06,0 0.12,0.03 0.17,0.08 0.04,0.04 0.07,0.1 0.07,0.17l0 0.35c0,0.07 -0.03,0.13 -0.07,0.17 -0.05,0.05 -0.11,0.08 -0.17,0.08l-0.35 0c-0.07,0 -0.13,-0.03 -0.18,-0.08 -0.04,-0.04 -0.07,-0.1 -0.07,-0.17l0 -0.35c0,-0.07 0.03,-0.13 0.07,-0.17 0.05,-0.05 0.11,-0.08 0.18,-0.08zm0.35 0.19l-0.35 0c-0.02,0 -0.04,0.01 -0.05,0.02 -0.01,0.01 -0.01,0.02 -0.01,0.04l0 0.35c0,0.02 0,0.03 0.01,0.04 0.01,0.01 0.03,0.02 0.05,0.02l0.35 0c0.01,0 0.03,-0.01 0.04,-0.02 0.01,-0.01 0.01,-0.02 0.01,-0.04l0 -0.35c0,-0.02 0,-0.03 -0.01,-0.04 -0.01,-0.01 -0.03,-0.02 -0.04,-0.02z"/>
   <path class="fil0" d="M1.3 1.05l0.35 0c0.07,0 0.13,0.03 0.17,0.08 0.05,0.04 0.08,0.1 0.08,0.17l0 0.35c0,0.07 -0.03,0.13 -0.08,0.17 -0.04,0.05 -0.1,0.08 -0.17,0.08l-0.35 0c-0.07,0 -0.13,-0.03 -0.17,-0.08 -0.05,-0.04 -0.08,-0.1 -0.08,-0.17l0 -0.35c0,-0.07 0.03,-0.13 0.08,-0.17 0.04,-0.05 0.1,-0.08 0.17,-0.08zm0.35 0.19l-0.35 0c-0.02,0 -0.03,0.01 -0.04,0.02 -0.01,0.01 -0.02,0.02 -0.02,0.04l0 0.35c0,0.02 0.01,0.03 0.02,0.04 0.01,0.01 0.02,0.02 0.04,0.02l0.35 0c0.02,0 0.03,-0.01 0.04,-0.02 0.01,-0.01 0.02,-0.02 0.02,-0.04l0 -0.35c0,-0.02 -0.01,-0.03 -0.02,-0.04 -0.01,-0.01 -0.02,-0.02 -0.04,-0.02z"/>
   <circle class="fil1" cx="0.42" cy="0.42" r="0.1"/>
   <circle class="fil1" cx="1.47" cy="1.47" r="0.1"/>
  </g>
 </g>
</svg>
