<?xml version="1.0" encoding="UTF-8" standalone="no"?>
<svg
   viewBox="0 0 22 22"
   version="1.1"
   id="svg68"
   sodipodi:docname="question.svg"
   inkscape:version="1.1 (c68e22c387, 2021-05-23)"
   xmlns:inkscape="http://www.inkscape.org/namespaces/inkscape"
   xmlns:sodipodi="http://sodipodi.sourceforge.net/DTD/sodipodi-0.dtd"
   xmlns="http://www.w3.org/2000/svg"
   xmlns:svg="http://www.w3.org/2000/svg">
  <sodipodi:namedview
     id="namedview70"
     pagecolor="#ffffff"
     bordercolor="#666666"
     borderopacity="1.0"
     inkscape:pageshadow="2"
     inkscape:pageopacity="0.0"
     inkscape:pagecheckerboard="0"
     showgrid="false"
     inkscape:zoom="16.5"
     inkscape:cx="8.7878788"
     inkscape:cy="6.6969697"
     inkscape:window-width="1280"
     inkscape:window-height="953"
     inkscape:window-x="-8"
     inkscape:window-y="-8"
     inkscape:window-maximized="1"
     inkscape:current-layer="svg68" />
  <defs
     id="defs64">
    <clipPath
       id="clipPath42">
      <path
         d="m22.2 686.12h1447.73v-667.19h-1447.73v667.19"
         id="path40" />
    </clipPath>
    <clipPath
       id="clipPath46">
      <path
         fill="#f2f2f2"
         d="m7 1023.36h1v1h-1z"
         id="path44" />
    </clipPath>
    <clipPath
       id="clipPath50">
      <path
         d="m0 706.47h1490.93v-706.47h-1490.93v706.47"
         id="path48" />
    </clipPath>
    <clipPath
       id="clipPath54">
      <path
         fill="#aade87"
         fill-opacity=".472"
         d="m-6 1028.36h32v32h-32z"
         id="path52" />
    </clipPath>
    <clipPath
       id="clipPath58">
      <path
         fill="#00f"
         fill-opacity=".514"
         d="m-7 1024.36h34v34h-34z"
         id="path56" />
    </clipPath>
    <clipPath
       id="clipPath62">
      <path
         fill="#f2f2f2"
         d="m7 1023.36h1v1h-1z"
         id="path60" />
    </clipPath>
  </defs>
  <path
     d="M 11,0.02830303 A 10.969697,10.969697 0 0 0 0.03030303,10.998 10.969697,10.969697 0 0 0 11,21.967697 10.969697,10.969697 0 0 0 21.969697,10.998 10.969697,10.969697 0 0 0 11,0.02830303 M 10.9918,4.8275455 c 1.047606,0 1.899129,0.3002954 2.554568,0.9022575 0.656811,0.5909925 0.985901,1.3492728 0.985901,2.2734697 0,0.4017652 -0.111068,0.8090152 -0.32909,1.22175 C 13.983785,9.6405 13.783588,9.9325682 13.6163,10.112197 c -0.160432,0.165917 -0.390796,0.385311 -0.691091,0.652697 l -0.08502,0.08364 c -0.702061,0.612932 -1.055834,1.225864 -1.055834,1.838795 v 0.667781 h -1.622144 v -0.785705 c 0,-0.500492 0.109697,-0.931053 0.329091,-1.287568 0.218023,-0.367485 0.604705,-0.798046 1.157303,-1.2875683 0.309894,-0.2852121 0.529288,-0.4854091 0.65544,-0.6197879 0.13575,-0.1439772 0.270129,-0.3386893 0.39628,-0.5827651 0.138492,-0.2564167 0.209795,-0.5224318 0.209795,-0.788447 0,-0.5128333 -0.174143,-0.9241969 -0.525174,-1.2368333 C 12.055833,6.453803 11.590992,6.2974848 10.991773,6.2974848 10.001758,6.2974848 9.3216364,6.835 8.9541515,7.9045455 L 7.4677576,7.3025833 C 7.7090909,6.6663409 8.1259394,6.0972879 8.7128182,5.5954242 9.3120379,5.0839621 10.070318,4.8275455 10.991773,4.8275455 m -0.0192,10.0674395 c 0.334576,0 0.61156,0.111068 0.830954,0.34006 0.230364,0.218023 0.345546,0.482667 0.345546,0.795303 0,0.312637 -0.115182,0.57591 -0.345546,0.803531 -0.219394,0.222136 -0.496378,0.334576 -0.830954,0.334576 -0.333205,0 -0.615674,-0.11244 -0.846038,-0.334576 -0.2180228,-0.227621 -0.3263486,-0.490894 -0.3263486,-0.803531 0,-0.312636 0.1083258,-0.57728 0.3263486,-0.795303 0.230364,-0.228992 0.512833,-0.34006 0.846038,-0.34006"
     fill="#4d4d4d"
     fill-rule="evenodd"
     id="path66"
     style="fill:#e2b1e9;fill-opacity:1;stroke-width:1.37121" />
</svg>
