<?xml version="1.0" encoding="UTF-8"?>
<!DOCTYPE svg PUBLIC "-//W3C//DTD SVG 1.0//EN" "http://www.w3.org/TR/2001/REC-SVG-20010904/DTD/svg10.dtd">
<!-- Creator: CorelDRAW 2019 (64-Bit Versión de evaluación) -->
<svg xmlns="http://www.w3.org/2000/svg" xml:space="preserve" width="84px" height="84px" version="1.0" style="shape-rendering:geometricPrecision; text-rendering:geometricPrecision; image-rendering:optimizeQuality; fill-rule:evenodd; clip-rule:evenodd"
viewBox="0 0 31.68 31.68"
 xmlns:xlink="http://www.w3.org/1999/xlink"
 xmlns:xodm="http://www.corel.com/coreldraw/odm/2003">
 <defs>
  <style type="text/css">
   <![CDATA[
    .fil0 {fill:none}
    .fil1 {fill:#FEFEFE;fill-rule:nonzero}
   ]]>
  </style>
 </defs>
 <g id="Capa_x0020_1">
  <metadata id="CorelCorpID_0Corel-Layer"/>
  <rect class="fil0" width="31.68" height="31.68"/>
 </g>
 <g id="Capa_x0020_1_0">
  <metadata id="CorelCorpID_1Corel-Layer"/>
  <g id="_1891353193696">
   <path class="fil1" d="M9.57 12.71l12.19 -3.57c0.2,-0.07 0.45,-0.03 0.64,0.16 0.23,0.25 0.23,0.64 -0.03,0.87l-6.41 6.29c-0.18,0.21 -0.48,0.28 -0.73,0.16l-5.77 -2.77c-0.14,-0.07 -0.27,-0.2 -0.32,-0.39 -0.09,-0.32 0.09,-0.66 0.43,-0.75zm10.17 -1.7l-8.26 2.43 3.89 1.85 4.37 -4.28 0 0z"/>
   <path class="fil1" d="M18.98 22.12l3.55 -12.18c0.1,-0.21 -0.25,-0.19 -0.43,-0.35 -0.25,-0.25 -0.32,0.26 -0.57,0.51l-5.5 5.65c-0.2,0.16 -0.36,-0.11 -0.96,0.71l2.75 5.75c0.09,0.16 0.23,0.27 0.39,0.34 0.34,0.09 0.68,-0.09 0.77,-0.43l0 0zm1.68 -10.17l-2.41 8.27 -1.88 -3.92 4.29 -4.35 0 0z"/>
  </g>
 </g>
</svg>
